#!OML:ASF F:\VICON\USERDATA\INSTALL\rory3\rory3.ASF
:FULLY-SPECIFIED
:DEGREES
913
root 1.65149 14.787 -1.54456 32.4379 -1.18293 -2.77966
lowerback 26.608 -0.16609 2.00912
upperback -0.205214 0.573973 1.09827
thorax -15.2297 0.155384 -0.102939
lowerneck -22.2562 -1.52175 -3.95087
upperneck 17.5741 -0.967942 0.768034
head 9.21531 -0.634721 0.772377
rclavicle -6.98852e-016 1.5499e-014
rhumerus -8.51144 23.3206 -85.2518
rradius 39.9788
rwrist 11.1019
rhand -23.2482 -45.1272
rfingers 7.12502
rthumb 3.2034 -795.083
lclavicle -6.98852e-016 1.5499e-014
lhumerus -14.4478 -28.6834 83.8673
lradius 35.2952
lwrist 4.60664
lhand -31.4469 -33.2585
lfingers 7.12502
lthumb -4.71469 -3.33095
rfemur -79.3769 2.20313 20.7525
rtibia 77.9277
rfoot -23.6427 -17.4667
rtoes -8.47008
lfemur -79.1713 -2.53723 -15.791
ltibia 77.1039
lfoot -26.1632 12.1605
ltoes -10.7648
914
root 1.67518 14.8371 -1.51135 32.5744 -1.1991 -2.66247
lowerback 25.4822 -0.178256 2.00247
upperback -0.339882 0.517219 1.03944
thorax -14.7559 0.131554 -0.145248
lowerneck -22.5272 -1.52377 -3.88374
upperneck 18.399 -0.965415 0.715739
head 9.55176 -0.642817 0.743928
rclavicle 5.40446e-016 -1.19519e-014
rhumerus -9.32265 22.9873 -85.5983
rradius 40.4464
rwrist 10.6265
rhand -23.1183 -45.2775
rfingers 7.12502
rthumb 3.32884 -795.231
lclavicle 5.40446e-016 -1.19519e-014
lhumerus -15.1003 -27.9512 84.2383
lradius 35.1829
lwrist 4.00582
lhand -30.9255 -32.2973
lfingers 7.12502
lthumb -4.21119 -2.35921
rfemur -79.0554 2.17208 20.453
rtibia 77.3312
rfoot -23.4484 -17.4828
rtoes -8.85417
lfemur -78.7983 -2.5749 -16.0528
ltibia 76.4362
lfoot -26.0883 11.9911
ltoes -10.7827
915
root 1.70172 14.8872 -1.47964 32.653 -1.0387 -2.71216
lowerback 24.6727 -0.252588 2.27869
upperback -0.682489 0.481131 1.01432
thorax -14.704 0.0926076 -0.317707
lowerneck -22.2861 -1.47056 -3.71583
upperneck 19.1318 -0.926301 0.587884
head 9.76612 -0.635263 0.679324
rclavicle 4.92613e-015 -3.69615e-015
rhumerus -10.3771 22.7777 -86.089
rradius 40.4538
rwrist 10.0434
rhand -23.3238 -45.3954
rfingers 7.12502
rthumb 3.13043 -795.352
lclavicle 4.92613e-015 -3.69615e-015
lhumerus -16.1192 -27.6695 84.7181
lradius 35.0978
lwrist 3.80067
lhand -30.8074 -31.6556
lfingers 7.12502
lthumb -4.09716 -1.71523
rfemur -78.6395 2.14126 20.3472
rtibia 76.7587
rfoot -23.408 -17.3775
rtoes -8.31555
lfemur -78.4124 -2.64484 -16.0937
ltibia 75.8316
lfoot -25.9076 11.9076
ltoes -10.9683
916
root 1.72198 14.9351 -1.44633 32.6481 -0.975189 -2.88582
lowerback 23.282 -0.217115 2.4943
upperback -0.583515 0.539591 1.02119
thorax -13.7899 0.113346 -0.454466
lowerneck -21.93 -1.43271 -3.56531
upperneck 19.2422 -0.905364 0.446777
head 9.73983 -0.63266 0.609648
rclavicle 4.24902e-015 2.00959e-014
rhumerus -10.5884 22.1763 -86.1704
rradius 41.076
rwrist 8.95673
rhand -20.7371 -47.3449
rfingers 7.12502
rthumb 5.62814 -797.25
lclavicle 4.24902e-015 2.00959e-014
lhumerus -16.2655 -27.4841 84.8301
lradius 34.8706
lwrist 3.72091
lhand -31.0049 -32.1562
lfingers 7.12502
lthumb -4.28789 -2.2196
rfemur -78.1542 2.36467 20.2899
rtibia 76.1801
rfoot -23.2107 -17.4559
rtoes -8.09439
lfemur -77.9725 -2.5457 -16.0531
ltibia 75.2909
lfoot -25.75 11.8645
ltoes -11.0885
917
root 1.74187 14.9749 -1.41445 32.5225 -1.0889 -2.89574
lowerback 22.9955 -0.165571 2.30192
upperback -1.12376 0.564287 1.05394
thorax -14.2646 0.13307 -0.311847
lowerneck -21.2557 -1.38592 -3.6136
upperneck 19.8814 -0.838363 0.392387
head 9.84471 -0.618921 0.61131
rclavicle -1.96921e-015 -1.16662e-014
rhumerus -12.2213 21.8347 -86.7127
rradius 41.6373
rwrist 9.08108
rhand -20.3348 -47.9786
rfingers 7.12502
rthumb 6.01664 -797.873
lclavicle -1.96921e-015 -1.16662e-014
lhumerus -17.6789 -26.7774 85.4675
lradius 34.8644
lwrist 3.44961
lhand -30.2465 -31.9427
lfingers 7.12502
lthumb -3.55553 -1.99262
rfemur -77.6112 2.59254 20.0413
rtibia 75.6347
rfoot -22.8855 -17.6318
rtoes -8.47724
lfemur -77.4273 -2.41269 -16.2904
ltibia 74.8223
lfoot -25.6659 11.8703
ltoes -11.1199
918
root 1.78241 15.0214 -1.38879 32.2772 -0.746702 -2.92416
lowerback 22.6779 -0.324844 2.77161
upperback -1.49559 0.488328 1.09676
thorax -14.5218 0.0603661 -0.502947
lowerneck -20.9714 -1.39356 -3.73085
upperneck 20.6243 -0.816764 0.380878
head 10.0591 -0.627615 0.631489
rclavicle 1.9661e-015 3.37934e-015
rhumerus -13.5508 21.5531 -87.0665
rradius 41.8149
rwrist 9.58142
rhand -22.5924 -47.5442
rfingers 7.12502
rthumb 3.83676 -797.489
lclavicle 1.9661e-015 3.37934e-015
lhumerus -18.7759 -26.0502 85.9682
lradius 34.995
lwrist 3.13335
lhand -28.9848 -31.1943
lfingers 7.12502
lthumb -2.33704 -1.22732
rfemur -76.7795 2.22601 20.1288
rtibia 75.0924
rfoot -22.8992 -17.6386
rtoes -9.28387
lfemur -76.8434 -2.63866 -16.4275
ltibia 74.43
lfoot -25.5627 12.0218
ltoes -11.1921
919
root 1.83859 15.0689 -1.3673 32.002 -0.0036347 -3.19327
lowerback 22.4861 -0.638177 3.91795
upperback -1.87425 0.408368 1.20739
thorax -14.8627 -0.0690636 -1.00087
lowerneck -21.1277 -1.41097 -3.70461
upperneck 21.797 -0.805454 0.265575
head 10.5119 -0.647191 0.588313
rclavicle 1.45361e-015 1.43125e-014
rhumerus -14.6661 21.2403 -87.2164
rradius 41.6348
rwrist 10.8462
rhand -24.2139 -46.6723
rfingers 7.12502
rthumb 2.27081 -796.64
lclavicle 1.45361e-015 1.43125e-014
lhumerus -19.7973 -25.2572 86.4426
lradius 35.0126
lwrist 2.31093
lhand -28.2907 -30.8949
lfingers 7.12502
lthumb -1.66663 -0.921624
rfemur -75.8047 1.58993 20.6363
rtibia 74.5753
rfoot -22.892 -17.8307
rtoes -11.075
lfemur -76.3464 -3.04853 -16.2466
ltibia 74.1469
lfoot -25.3896 12.098
ltoes -10.9057
920
root 1.89208 15.1074 -1.34333 31.7939 0.551605 -3.45059
lowerback 22.3633 -0.858966 4.74629
upperback -2.37571 0.383266 1.38233
thorax -15.3973 -0.154755 -1.25788
lowerneck -21.2274 -1.42422 -3.75529
upperneck 23.1311 -0.768676 0.174853
head 11.0228 -0.66152 0.570175
rclavicle 4.62174e-015 4.87022e-015
rhumerus -15.9495 21.1122 -87.3915
rradius 41.4707
rwrist 11.4012
rhand -25.3368 -45.8627
rfingers 7.12502
rthumb 1.18624 -795.839
lclavicle 4.62174e-015 4.87022e-015
lhumerus -20.9289 -24.5721 87.0122
lradius 34.9895
lwrist 1.47622
lhand -28.4024 -31.2142
lfingers 7.12502
lthumb -1.77451 -1.24181
rfemur -75.0849 1.13881 20.9612
rtibia 74.1869
rfoot -22.5745 -18.0273
rtoes -12.6607
lfemur -75.8838 -3.33086 -16.1607
ltibia 73.9216
lfoot -25.2826 11.8561
ltoes -10.02
